<svg id="Layer_1" data-name="Layer 1" xmlns="http://www.w3.org/2000/svg" viewBox="0 0 322.69 68.11">
<title>Radione</title>
<path fill="white" d="M200.27,54.86h19.87q10.63,0,15.19,3.94T239.88,72q0,10.5-4.6,14.15A17.37,17.37,0,0,1,228.2,89H229q5.53,0,8.37,3.63t2.51,10.39q-.15,3.84-.1,8c.07,2.88.16,5.06.29,6.54a15,15,0,0,0,.56,3.35h-13.5a15.2,15.2,0,0,1-.47-3.28c-.1-1.47-.14-3.67-.14-6.61v-8c.06-3.32-.56-5.65-1.88-7s-3.59-2-6.84-2h-3.94v27H200.27Zm13.54,29h3.75q5.25,0,7-1.95c1.17-1.3,1.76-3.88,1.76-7.76q0-5.43-1.85-7.4c-1.24-1.32-3.54-2-6.92-2h-3.75Z" transform="translate(-200.27 -53.88)"/>
<path fill="white" d="M262.89,54.86h15.89l15,66.14H280.71l-2.62-14.3H263.68L261,121H247.89Zm2.59,42h10.86L271,67.23h0Z" transform="translate(-200.27 -53.88)"/>
<path fill="white" d="M303.77,54.86h17.81q12.75,0,18.19,5t5.43,16.85V95.27q0,14.9-4.75,20.32T322.33,121H303.77Zm13.54,56.2h3.57c4.24,0,7.1-.86,8.57-2.6s2.21-5.08,2.21-10V76.56c0-4.47-.82-7.54-2.46-9.23s-4.65-2.53-9-2.53h-2.86Z" transform="translate(-200.27 -53.88)"/>
<path fill="white" d="M356.13,54.86h13.54V121H356.13Z" transform="translate(-200.27 -53.88)"/>
<path fill="white" d="M385.75,116.92q-4.63-5.06-4.64-17.39V72.3q0-9.24,5.13-13.83t15.45-4.59q10.31,0,15.47,4.59t5.15,13.83V99.53q0,12.33-4.64,17.39t-16,5.06Q390.4,122,385.75,116.92Zm21.47-7.5q1.54-2.62,1.55-9.33V72.86c0-3-.61-5.22-1.81-6.75a6.3,6.3,0,0,0-5.27-2.3,6.24,6.24,0,0,0-5.25,2.3q-1.79,2.3-1.78,6.75v27.23q0,6.7,1.54,9.33t5.49,2.63C404.34,112.05,406.19,111.17,407.22,109.42Z" transform="translate(-200.27 -53.88)"/>
<path fill="white" d="M445.94,121H434.83V54.86h19.92l11.44,55.83V54.86H477.3V121H457.47L445.94,64.7Z" transform="translate(-200.27 -53.88)"/>
<path fill="white" d="M489.53,121V54.86h33.05V64.7h-19.5V82.19h18.84V92H503.08v19.13H523V121Z" transform="translate(-200.27 -53.88)"/>
</svg>
